<?xml version="1.0" encoding="UTF-8" standalone="no"?>
<!-- Created with Inkscape (http://www.inkscape.org/) -->

<svg
   xmlns:osb="http://www.openswatchbook.org/uri/2009/osb"
   xmlns:dc="http://purl.org/dc/elements/1.1/"
   xmlns:cc="http://creativecommons.org/ns#"
   xmlns:rdf="http://www.w3.org/1999/02/22-rdf-syntax-ns#"
   xmlns:svg="http://www.w3.org/2000/svg"
   xmlns="http://www.w3.org/2000/svg"
   xmlns:sodipodi="http://sodipodi.sourceforge.net/DTD/sodipodi-0.dtd"
   xmlns:inkscape="http://www.inkscape.org/namespaces/inkscape"
   id="svg3390"
   version="1.1"
   inkscape:version="0.91 r13725"
   width="640"
   height="640"
   viewBox="0 0 640 640"
   sodipodi:docname="berlin-icon.png">
  <metadata
     id="metadata3396">
    <rdf:RDF>
      <cc:Work
         rdf:about="">
        <dc:format>image/svg+xml</dc:format>
        <dc:type
           rdf:resource="http://purl.org/dc/dcmitype/StillImage" />
        <dc:title></dc:title>
      </cc:Work>
    </rdf:RDF>
  </metadata>
  <defs
     id="defs3394">
    <linearGradient
       id="linearGradient5658"
       osb:paint="solid">
      <stop
         style="stop-color:#000000;stop-opacity:1;"
         offset="0"
         id="stop5660" />
    </linearGradient>
  </defs>
  <sodipodi:namedview
     pagecolor="#ffffff"
     bordercolor="#666666"
     borderopacity="1"
     objecttolerance="10"
     gridtolerance="10"
     guidetolerance="10"
     inkscape:pageopacity="0"
     inkscape:pageshadow="2"
     inkscape:window-width="1855"
     inkscape:window-height="1056"
     id="namedview3392"
     showgrid="false"
     inkscape:zoom="1.4359375"
     inkscape:cx="198.82481"
     inkscape:cy="320"
     inkscape:window-x="65"
     inkscape:window-y="24"
     inkscape:window-maximized="1"
     inkscape:current-layer="svg3390" />
  <path
     style="fill:#000000;fill-opacity:1;stroke:none;stroke-width:0;stroke-linecap:butt;stroke-linejoin:miter;stroke-miterlimit:4;stroke-dasharray:none;stroke-opacity:1"
     d="m 325.21328,511.92616 c -1.33555,-1.66212 -3.35909,-4.24785 -4.49677,-5.74606 -2.55613,-3.36615 -4.92069,-4.86235 -10.92671,-6.91396 -2.57286,-0.87886 -6.2381,-2.20317 -8.14498,-2.94291 -1.90688,-0.73973 -3.7798,-1.34497 -4.16205,-1.34497 -0.38225,0 -2.88184,-0.86156 -5.55465,-1.91457 -7.84566,-3.09097 -17.1844,-5.26321 -35.83112,-8.33447 -8.72636,-1.43731 -10.16232,-1.2077 -15.96229,2.55236 -1.75271,1.13627 -5.20332,3.33286 -7.66801,4.88132 l -4.48125,2.81536 -16.14721,0 -16.14721,0 0.4017,-4.68933 c 0.22094,-2.57913 0.58139,-9.54916 0.80103,-15.48898 0.21962,-5.9398 0.66437,-13.55186 0.98833,-16.91569 0.54291,-5.63718 0.79346,-6.41603 3.19987,-9.94705 1.43597,-2.10705 4.59578,-7.02826 7.02182,-10.93603 2.65177,-4.2714 7.74738,-10.95879 12.77665,-16.76788 4.60112,-5.31457 8.36943,-10.20703 8.37403,-10.87216 0.011,-1.59237 -0.82575,-2.09257 -6.00612,-3.59036 -3.87644,-1.12078 -8.05139,-2.44068 -15.3703,-4.85927 -1.28643,-0.4251 -6.09799,-1.95409 -10.69237,-3.39775 -4.59439,-1.44364 -10.60886,-3.36786 -13.36549,-4.27603 -2.75662,-0.90817 -7.97128,-2.55672 -11.58813,-3.66346 -9.07921,-2.77819 -13.20049,-4.76405 -20.8849,-10.06358 -3.64154,-2.51137 -6.90119,-4.79459 -7.24366,-5.07382 -0.59887,-0.48826 1.40673,-7.16861 3.31563,-11.04384 0.46198,-0.93786 1.54272,-3.58613 2.40165,-5.88502 l 1.56168,-4.17982 -1.73621,-1.22 c -0.95491,-0.67103 -3.42127,-2.31637 -5.48079,-3.65634 -4.96783,-3.23218 -5.37022,-4.5613 -4.94112,-16.32097 0.31226,-8.5576 0.47791,-9.47528 2.80621,-15.54594 l 2.47437,-6.45149 -1.49682,-3.49556 c -0.82325,-1.92255 -1.75081,-3.73854 -2.06125,-4.03554 -0.31045,-0.29699 -0.56445,-1.00864 -0.56445,-1.58145 0,-0.90526 -2.41183,-6.74012 -4.99681,-12.08863 -0.45328,-0.93786 -1.2894,-2.98412 -1.85803,-4.54722 -0.56865,-1.56311 -1.93734,-4.89411 -3.04156,-7.40222 l -2.00768,-4.5602 8.61569,-12.20768 c 4.97165,-7.04441 8.61968,-12.82041 8.62514,-13.65639 0.006,-0.9142 -1.99901,-3.83113 -5.43395,-7.90562 l -5.44338,-6.45689 3.20367,-5.30975 3.20366,-5.30976 4.41161,-0.0478 c 2.42639,-0.0263 8.96777,-0.21945 14.53641,-0.42921 11.86629,-0.44699 12.19718,-0.58871 13.88031,-5.94471 1.11151,-3.53707 2.60041,-6.78656 5.5079,-12.02084 0.85895,-1.54636 1.56172,-3.26355 1.56172,-3.81601 0,-0.56105 -2.95007,-3.20517 -6.68273,-5.98967 -3.67551,-2.74185 -6.68275,-5.15836 -6.68275,-5.37003 0,-0.49638 2.97971,-2.52052 7.40918,-5.03311 4.70078,-2.66649 7.06369,-4.76891 7.4943,-6.66812 0.19625,-0.86555 0.65935,-2.46896 1.02911,-3.56313 0.36978,-1.09418 1.90023,-6.08191 3.40103,-11.08385 1.50079,-5.00195 3.21205,-10.11757 3.80281,-11.36806 0.82791,-1.75246 1.15531,-5.17246 1.42837,-14.92057 0.19484,-6.95583 0.38603,-12.67675 0.42487,-12.71315 0.0389,-0.0364 5.93471,-0.39154 13.10194,-0.78922 l 13.03134,-0.72304 5.68033,4.66098 c 10.87062,8.91988 11.06637,9.03358 14.82226,8.60981 1.81063,-0.20429 4.32862,-0.7445 5.59554,-1.20047 1.26694,-0.45596 3.29701,-1.18461 4.51129,-1.61923 3.02688,-1.08337 3.13953,-1.44904 6.41106,-20.8091 l 0.43222,-2.5578 9.66116,-0.15851 c 5.31363,-0.0871 9.9185,-0.37739 10.23304,-0.64493 0.61863,-0.52617 -0.92916,-5.76759 -4.63034,-15.68025 -3.39592,-9.09505 -3.46261,-9.20292 -6.68293,-10.80811 -3.43605,-1.71273 -3.43166,-2.00301 0.13029,-8.61908 4.0796,-7.57758 4.44541,-10.32136 2.19507,-16.46441 -2.73994,-7.47958 -5.13477,-16.39801 -4.54466,-16.92457 0.35531,-0.31706 2.63427,-0.13642 5.78518,0.45856 2.85943,0.53993 7.45436,1.3267 10.21099,1.74837 8.68526,1.32855 24.3227,4.35483 26.06268,5.04385 1.21875,0.48262 2.96355,2.8937 6.45008,8.91318 5.1892,8.95914 6.11846,9.96002 13.55062,14.59518 6.33945,3.95367 8.79926,4.99671 13.74713,5.82927 2.2053,0.37108 5.06217,0.88311 6.3486,1.13785 1.28642,0.25474 5.42138,1.05232 9.18876,1.7724 3.7674,0.72008 6.84982,1.50574 6.84982,1.74592 0,0.63544 -4.1069,8.01032 -5.01956,9.01378 -0.4265,0.46893 -1.7888,2.89886 -3.02733,5.39983 -1.23853,2.50097 -2.5382,4.87778 -2.88815,5.28181 -0.38036,0.43912 -0.39233,0.92775 -0.0297,1.2148 1.39115,1.10139 19.67433,4.18509 21.47794,3.62254 0.6499,-0.20271 4.0385,-2.09222 7.53024,-4.19891 6.33268,-3.82076 18.79363,-9.23178 43.10366,-18.71725 6.6159,-2.58145 13.52427,-5.15036 15.35191,-5.70868 l 3.32299,-1.01515 13.71799,5.98159 c 7.5449,3.28987 14.6561,6.51311 15.80266,7.16276 2.48163,1.4061 3.72947,3.39433 5.2505,8.36589 2.19834,7.1853 3.8977,10.4483 5.85745,11.24708 1.00757,0.41067 5.02774,1.36088 8.9337,2.11157 3.90597,0.75068 7.21545,1.46158 7.35441,1.57977 0.13896,0.11819 1.92188,5.05435 3.96206,10.96922 2.04019,5.91489 4.47915,12.75761 5.41991,15.20605 l 1.71046,4.45171 -3.24559,3.95026 c -5.2925,6.44157 -11.56481,15.40993 -12.39042,17.71622 -0.58959,1.64701 -0.58246,2.31163 0.0306,2.84201 0.7958,0.68855 7.4867,4.13508 17.92271,9.23209 6.23451,3.04499 5.72538,2.06382 6.92413,13.34367 0.63052,5.933 0.94616,6.95654 3.41809,11.08386 1.49787,2.50096 2.98923,4.79021 3.3141,5.08719 1.24577,1.13881 0.43359,4.29319 -3.15378,12.24908 -2.04397,4.53301 -4.20755,9.47663 -4.80796,10.98582 l -1.09163,2.74395 3.31842,5.3728 c 3.72793,6.03581 7.75618,10.75666 16.82333,19.7158 3.41503,3.37435 6.20714,6.57163 6.20467,7.10504 -0.003,0.5334 -1.28056,2.67757 -2.84018,4.76483 -1.5596,2.08725 -4.94071,6.87011 -7.51356,10.62858 -4.06845,5.94325 -4.93912,6.87219 -6.68274,7.12996 -1.10266,0.16303 -6.2524,0.79731 -11.44389,1.40952 l -9.43906,1.11312 -9.2726,4.09596 c -5.09994,2.25276 -9.57333,4.29154 -9.94087,4.53061 -0.36756,0.23907 -2.54531,1.24303 -4.83946,2.23102 -2.50518,1.07889 -6.99838,3.99625 -11.24961,7.3042 -11.01729,8.57272 -9.41433,7.85322 -21.71834,9.74829 -16.24679,2.50235 -16.6847,2.67015 -21.38547,8.19489 -2.16051,2.53921 -5.01771,5.84041 -6.34931,7.33598 -2.82326,3.17093 -2.7476,4.23223 0.54807,7.68807 7.2458,7.59798 13.83784,16.7989 13.88896,19.38569 0.0276,1.39599 5.08986,13.57971 6.28913,15.1365 1.32962,1.72599 7.59615,6.26164 31.78469,23.00546 10.47519,7.25114 19.26674,13.47631 19.53677,13.83367 0.27004,0.35737 0.49558,3.74472 0.50121,7.52743 l 0.0103,6.87766 -4.36755,1.57883 -4.36754,1.57884 -4.48708,7.44466 -4.48708,7.44467 -10.87733,6.26654 c -7.22271,4.16109 -11.00702,6.69319 -11.26334,7.53638 -0.43705,1.43763 0.50694,2.92012 8.05394,12.64832 2.78577,3.5909 5.06503,6.82112 5.06503,7.17827 0,1.70017 -9.87366,14.0449 -10.91771,13.65007 -8.21789,-3.10781 -9.33387,-3.33442 -14.76918,-2.99908 -2.96331,0.18282 -7.04182,0.58015 -9.06335,0.88296 -2.02151,0.30279 -7.76355,1.05528 -12.76005,1.6722 -10.10053,1.24711 -12.85696,1.87681 -32.97335,7.5325 -10.94778,3.07795 -14.50851,3.85881 -16.37272,3.59048 -2.84732,-0.40984 -10.93366,-2.39854 -13.74295,-3.37984 -4.33787,-1.51526 -9.06252,-2.61541 -10.48255,-2.44089 -1.09383,0.13443 -3.48679,2.73448 -8.96605,9.74204 l -7.47402,9.55866 -2.42825,-3.02203 -2e-5,0 z m 5.79421,-11.50602 c 1.37831,-1.68889 2.50602,-3.23152 2.50602,-3.42808 0,-0.19656 1.23726,-1.75121 2.74947,-3.45478 4.21396,-4.74725 5.57442,-4.88087 17.26157,-1.69538 5.18181,1.41238 9.99877,2.56795 10.70435,2.56795 0.70558,0 1.46873,0.25578 1.69589,0.56841 0.50844,0.6997 5.93858,0.75158 7.52716,0.0719 0.63823,-0.27307 4.318,-1.32466 8.17728,-2.33688 3.85928,-1.0122 7.91905,-2.17016 9.02169,-2.57321 1.10266,-0.40306 2.60627,-0.85704 3.34137,-1.00884 0.73511,-0.15179 4.04305,-0.95728 7.35102,-1.78997 3.30795,-0.8327 7.96916,-1.74733 10.35823,-2.03251 2.38908,-0.28519 9.30573,-1.16527 15.3703,-1.95574 12.48517,-1.62732 19.50031,-1.82224 22.84198,-0.63466 1.25878,0.44735 2.61061,0.63918 3.00405,0.4263 1.22269,-0.66156 4.2263,-4.75882 4.2263,-5.76514 0,-0.52602 -2.4488,-4.13522 -5.44178,-8.02041 -7.48489,-9.71621 -8.29422,-11.60798 -6.44383,-15.06221 0.75959,-1.41795 8.75494,-6.43369 15.94732,-10.00423 5.10662,-2.53511 9.01608,-6.23938 11.9887,-11.35949 3.51682,-6.05744 5.34514,-8.06122 9.03251,-9.89922 l 2.98458,-1.48768 0,-3.60891 c 0,-2.94545 -0.27643,-3.86839 -1.50361,-5.02031 -1.51264,-1.41986 -24.35097,-17.35328 -40.02623,-27.92474 -4.63551,-3.12621 -8.78979,-6.31692 -9.2317,-7.09044 -0.44192,-0.77353 -1.99918,-4.22657 -3.46055,-7.67344 -1.46137,-3.44686 -2.91632,-6.77858 -3.23322,-7.40383 -0.31692,-0.62524 -0.73898,-1.94926 -0.93796,-2.94227 -0.59699,-2.9796 -2.85926,-6.46541 -7.31273,-11.2678 -7.45632,-8.04047 -9.14067,-10.41576 -9.14067,-12.89021 0,-2.82901 0.31672,-3.32364 7.21423,-11.26689 8.54674,-9.84253 8.68761,-9.94563 15.41708,-11.28427 14.52043,-2.88843 17.91486,-3.49566 19.53674,-3.49496 2.15839,8.2e-4 5.30355,-1.9324 12.7607,-7.84402 3.19585,-2.53348 6.95488,-5.2161 8.35343,-5.96136 2.58409,-1.37703 16.68922,-7.75477 23.85488,-10.78619 3.69606,-1.56359 14.50319,-3.82781 18.27021,-3.82781 2.7877,0 6.73194,-1.22432 8.0527,-2.49961 1.16173,-1.12173 7.48913,-10.16961 9.44761,-13.50962 0.83649,-1.42657 0.70822,-1.70842 -2.19875,-4.83141 -1.69788,-1.82407 -5.41892,-5.6574 -8.26898,-8.51851 -5.75329,-5.77565 -13.77346,-17.91604 -13.68013,-20.70807 0.051,-1.52618 3.34685,-9.63361 7.60601,-18.71005 l 2.00069,-4.26354 -3.47065,-5.89669 c -3.36677,-5.72019 -3.48132,-6.0744 -3.82692,-11.83393 -0.46921,-7.81954 -0.88804,-8.3103 -11.8543,-13.89039 -4.77815,-2.43131 -9.81527,-5.28326 -11.19358,-6.33766 -2.14707,-1.6425 -2.50603,-2.26214 -2.50603,-4.32597 0,-2.90958 3.84056,-9.71757 9.93577,-17.61269 4.33246,-5.61188 5.13333,-7.2418 4.57699,-9.31515 -1.05857,-3.94506 -6.57745,-19.36767 -7.43578,-20.77945 -1.15052,-1.89235 -1.52605,-2.0532 -8.41353,-3.60379 -9.91183,-2.23147 -9.97585,-2.29339 -14.69916,-14.21518 l -2.85443,-7.20466 -9.43367,-4.24395 c -13.81804,-6.21637 -16.26139,-7.20904 -17.74425,-7.20904 -1.47876,0 -16.55535,5.55045 -23.78238,8.75549 -2.53516,1.12429 -4.83553,2.04416 -5.11194,2.04416 -0.27643,0 -4.79913,1.69979 -10.05047,3.77731 -5.71704,2.26175 -13.37017,5.93639 -19.07441,9.15852 -10.93265,6.17548 -8.55711,5.86017 -24.22131,3.21502 -10.33022,-1.74443 -11.86427,-2.25266 -13.44201,-4.45329 -2.17752,-3.03722 -1.94352,-3.89335 3.87839,-14.18964 1.21694,-2.1522 2.21261,-4.50093 2.21261,-5.21941 0,-1.47649 -0.21315,-1.55285 -7.68515,-2.75344 -11.50499,-1.8486 -14.31619,-3.01895 -26.36034,-10.97418 -5.30483,-3.50386 -4.58297,-2.54704 -12.86248,-17.04904 -1.85758,-3.25364 -2.00247,-3.29452 -26.8202,-7.56578 -1.77391,-0.3053 -3.47088,-0.55509 -3.77107,-0.55509 -1.34669,0 -1.16164,2.10003 0.67541,7.66461 2.70406,8.19082 2.63536,11.46956 -0.3618,17.26756 -1.28642,2.4886 -2.33895,4.83597 -2.33895,5.21636 0,0.38041 1.05253,1.68256 2.33895,2.89368 1.28643,1.21112 2.33897,2.57495 2.33897,3.03073 0,0.45579 1.46699,4.86728 3.25998,9.80331 5.32385,14.65631 5.61732,16.2968 3.45502,19.31308 -1.69509,2.36455 -4.53468,3.01181 -13.23067,3.01583 -3.7674,0.002 -6.84981,0.14814 -6.84981,0.32532 0,1.03651 -2.85608,15.70637 -3.44588,17.69929 -0.3947,1.33366 -1.34037,2.73648 -2.13921,3.17327 -1.9891,1.08765 -16.16448,4.93818 -19.69446,5.34971 l -2.90465,0.33862 -8.19602,-6.95441 -8.19603,-6.95442 -8.14394,0.19163 c -5.81272,0.13677 -8.29919,0.40575 -8.68627,0.93967 -0.29827,0.41143 -0.72353,4.37603 -0.94501,8.81024 -0.276,5.52533 -0.84147,9.4036 -1.79708,12.32522 -0.76689,2.34466 -2.71924,8.6113 -4.33854,13.92586 -5.87599,19.28514 -5.4675,18.44776 -10.66199,21.85637 -2.04428,1.34144 -3.71687,2.68854 -3.71687,2.99353 0,0.30501 1.9547,2.27669 4.34378,4.38152 5.51443,4.85833 5.61947,5.97352 1.33655,14.18971 -1.65399,3.17291 -3.00723,6.22412 -3.00723,6.78045 0,0.55633 -0.25357,1.25449 -0.56348,1.55149 -0.3099,0.29699 -1.10261,2.04561 -1.76155,3.88584 -0.65895,1.8402 -2.03155,4.13925 -3.05024,5.10898 -1.72601,1.64304 -2.25462,1.78925 -7.76135,2.14657 -3.25005,0.21091 -9.7177,0.40573 -14.37254,0.43296 l -8.46336,0.0495 -1.65548,2.51931 -1.65547,2.51931 4.69516,5.54836 c 7.17331,8.47683 7.22557,9.472 0.95135,18.11736 -2.04192,2.81359 -5.24956,7.34742 -7.12809,10.07518 -1.87853,2.72775 -3.69948,5.10882 -4.04654,5.29127 -1.62441,0.8539 -0.72433,4.23037 3.32824,12.48528 0.30696,0.62524 1.31793,3.05516 2.24662,5.39983 0.9287,2.34466 3.24143,7.93429 5.13943,12.42139 3.67998,8.69999 3.82847,10.07638 1.60329,14.86194 -2.0311,4.36813 -3.14325,10.23025 -3.41113,17.98007 l -0.27768,8.03302 3.52155,2.48243 c 7.15623,5.0446 8.60315,6.47787 8.60705,8.52588 0.004,1.77977 -4.05563,13.75698 -5.41365,15.97443 -1.55559,2.54007 0.0498,4.42574 8.15361,9.57707 4.0156,2.5526 7.37673,3.94329 14.29738,5.91564 2.57286,0.73324 8.28659,2.51707 12.6972,3.96407 12.44039,4.08129 15.16612,4.93383 18.04339,5.64346 1.47021,0.3626 3.27455,0.94334 4.00965,1.29055 0.7351,0.3472 4.86598,1.69055 9.17973,2.98524 14.65889,4.39954 16.1288,5.13502 17.23291,8.62259 1.05444,3.33068 -0.24447,5.54523 -9.57966,16.33259 -4.66376,5.38924 -8.47956,9.87727 -8.47956,9.97339 0,0.0961 -1.98563,3.22163 -4.41253,6.94558 -2.42689,3.72394 -5.4569,8.56127 -6.73336,10.74963 l -2.32084,3.97882 -0.73515,15.95541 c -0.40433,8.77548 -0.54135,16.38497 -0.30448,16.90998 0.37852,0.83901 1.73026,0.95458 11.16548,0.95458 11.93774,0 12.54454,-0.13012 18.71118,-4.01214 9.32294,-5.86899 11.21861,-6.78752 14.00805,-6.78752 6.86154,0 35.95525,5.76654 44.45352,8.81095 3.68231,1.31913 10.15344,3.59479 14.38027,5.05699 12.83841,4.44125 14.31384,5.15121 17.75905,8.5454 1.7668,1.74063 3.53089,3.16175 3.92024,3.15805 0.38933,-0.004 1.83559,-1.38854 3.21391,-3.07742 z"
     id="path3404"
     inkscape:connector-curvature="0" />
  <path
     style="fill:#000000;fill-opacity:0.86792453;stroke:none;stroke-width:0;stroke-miterlimit:4;stroke-dasharray:none;stroke-opacity:1"
     d="m 323.03515,508.56768 c -2.78607,-3.52528 -5.46085,-6.12105 -7.24563,-7.03157 -3.26226,-1.66428 -12.27288,-4.98214 -25.31184,-9.32024 -12.73517,-4.23703 -38.98799,-9.30128 -43.66698,-8.4235 -1.31905,0.24746 -6.12143,2.78719 -10.67195,5.64383 l -8.27368,5.19392 -15.84331,0.0146 c -8.71382,0.008 -15.84265,-0.2204 -15.84186,-0.50767 0.0147,-5.30518 2.298,-39.45208 2.74753,-41.08977 0.96364,-3.51072 14.43503,-23.26417 22.20207,-32.55549 8.51433,-10.18529 9.10891,-11.15689 7.69359,-12.57221 -0.57219,-0.5722 -15.12412,-5.5251 -32.3376,-11.00644 -17.21348,-5.48132 -33.02085,-10.82341 -35.12749,-11.87129 -2.10664,-1.04788 -6.72445,-3.84199 -10.2618,-6.20915 -5.04568,-3.37649 -6.43376,-4.65628 -6.44179,-5.93925 -0.006,-0.89945 1.55669,-5.52136 3.47181,-10.27092 1.91513,-4.74955 3.47931,-8.8711 3.47596,-9.15898 -0.003,-0.28789 -1.88623,-1.73478 -4.18417,-3.21533 -2.29795,-1.48054 -4.95897,-3.61993 -5.91339,-4.75419 -1.66262,-1.97591 -1.73531,-2.45754 -1.73531,-11.49841 0,-9.00453 0.11519,-9.77678 2.51841,-16.88445 l 2.51841,-7.44833 -2.1702,-4.37407 c -1.19362,-2.40574 -2.17021,-4.67277 -2.17021,-5.03785 0,-0.36508 -2.50707,-6.50372 -5.57127,-13.64141 -3.0642,-7.1377 -5.57127,-13.37763 -5.57127,-13.8665 0,-0.48887 2.59866,-4.5814 5.77481,-9.09451 6.79492,-9.65518 10.93901,-16.25792 10.93901,-17.42903 0,-0.46144 -2.04735,-3.37488 -4.54966,-6.47432 -6.68661,-8.28222 -6.45064,-7.26368 -2.9953,-12.92889 l 3.0183,-4.94868 13.64727,-0.35931 c 9.53743,-0.25109 14.2396,-0.64831 15.61416,-1.319 1.49394,-0.72894 2.57658,-2.38305 4.50255,-6.87918 1.39461,-3.25571 3.40961,-7.74022 4.47776,-9.96557 2.31507,-4.82312 2.45433,-4.56848 -6.04762,-11.05881 -2.97658,-2.27231 -5.26702,-4.36599 -5.08987,-4.65263 0.17715,-0.28664 3.00577,-2.1611 6.28581,-4.16548 3.28004,-2.00438 6.41534,-4.33612 6.96731,-5.18165 0.55198,-0.84554 2.13627,-5.29795 3.52064,-9.89425 1.38437,-4.5963 3.48329,-11.17737 4.66427,-14.62459 1.97137,-5.75437 2.1753,-7.21792 2.49001,-17.87025 0.18854,-6.38141 0.5353,-11.91364 0.77059,-12.29384 0.23529,-0.38021 6.04142,-1.03751 12.90252,-1.46067 l 12.47471,-0.76937 6.67654,5.45481 c 9.78728,7.99632 9.87454,8.04194 14.53343,7.59818 5.57305,-0.53083 11.63303,-2.9977 12.60515,-5.13125 0.42816,-0.93973 1.41334,-5.37609 2.18928,-9.85858 0.77593,-4.4825 1.56535,-8.8551 1.75426,-9.71691 0.33495,-1.52802 0.57225,-1.56719 9.55763,-1.57758 5.06778,-0.006 9.62357,-0.27033 10.12397,-0.5877 0.71954,-0.45636 0.3747,-2.23824 -1.64892,-8.520351 -3.86775,-12.006956 -6.03073,-16.37534 -8.96554,-18.106918 -1.47762,-0.871819 -2.48252,-2.006934 -2.48252,-2.804211 0,-0.736719 1.25354,-3.832649 2.78564,-6.879845 3.51503,-6.99104 3.56427,-9.667766 0.36238,-19.697893 -1.31869,-4.130904 -2.60134,-8.596627 -2.85032,-9.92383 -0.41531,-2.2138 -0.31335,-2.413097 1.23468,-2.413097 1.95852,0 31.7667,5.180637 36.62412,6.365243 1.80392,0.43993 3.67689,1.110806 4.16216,1.490836 0.48527,0.38003 3.08366,4.238782 5.77419,8.575004 2.69054,4.336222 6.1265,8.940829 7.63548,10.232459 4.19521,3.590935 13.7734,8.730522 17.70604,9.500926 1.93536,0.379138 7.90622,1.522364 13.26857,2.540503 5.36235,1.018138 9.98493,2.065035 10.27238,2.326436 0.28747,0.261402 -1.23153,3.436599 -3.37554,7.055993 -5.49971,9.284275 -7.44418,13.279035 -6.77736,13.923575 0.89814,0.86815 11.15232,2.83493 16.94254,3.24963 l 5.22307,0.37408 6.96409,-3.90317 c 8.31764,-4.661791 19.60024,-9.601852 40.73994,-17.837886 22.92128,-8.930136 19.13276,-8.505832 30.78584,-3.447939 5.47476,2.376253 12.54114,5.545575 15.70308,7.042936 6.27351,2.970869 7.08372,3.962684 9.56265,11.706151 0.67441,2.106638 1.86776,4.998038 2.6519,6.425338 1.59468,2.90267 3.70162,3.80802 13.32768,5.72692 3.03824,0.60566 5.58738,1.17467 5.66475,1.26446 0.0774,0.0898 2.54797,6.94703 5.49023,15.2383 l 5.34957,15.07505 -4.51904,5.6431 c -5.77443,7.21078 -10.6564,14.55312 -11.25059,16.92058 -0.45143,1.79862 -0.134,2.01721 11.36391,7.82552 6.50558,3.28637 12.03479,6.51327 12.28714,7.17089 0.25235,0.65762 0.91333,4.6516 1.46883,8.8755 0.9253,7.03566 1.27263,8.11014 4.14092,12.81013 1.722,2.82166 3.12518,5.64212 3.11816,6.26768 -0.0124,1.1067 -2.08251,6.30112 -7.17485,18.00351 l -2.49065,5.72359 4.19128,6.38297 c 2.3052,3.51063 7.22491,9.55741 10.9327,13.43729 12.01479,12.57244 11.50299,11.91078 10.56646,13.66072 -2.24486,4.19454 -14.13932,20.16091 -15.29176,20.52668 -0.72428,0.22988 -5.96177,0.98866 -11.63889,1.68619 -10.10124,1.24111 -10.5427,1.36733 -20.63927,5.90122 -15.39164,6.91164 -17.63893,8.15929 -25.94098,14.4019 -4.18855,3.14953 -8.5557,6.11516 -9.70477,6.59029 -1.14908,0.47514 -6.41568,1.54906 -11.70356,2.3865 -15.12546,2.3954 -15.57751,2.59201 -21.64823,9.41523 -7.01063,7.87966 -7.76536,9.08942 -6.87194,11.01499 0.39258,0.84612 2.66621,3.73209 5.0525,6.41326 6.20398,6.97062 9.73376,12.42636 11.68766,18.06485 0.93707,2.70416 2.56563,6.82395 3.61903,9.15509 2.28937,5.06634 2.23504,5.02212 30.25074,24.61547 11.07476,7.74536 20.85817,14.60677 21.7409,15.24758 1.48933,1.08116 1.60654,1.67027 1.62686,8.17613 l 0.0219,7.01101 -3.83846,1.20996 c -2.11114,0.66548 -4.17907,1.58452 -4.59539,2.04231 -0.41633,0.45779 -2.68805,3.9463 -5.04828,7.75224 l -4.29133,6.91991 -7.65299,4.42623 c -11.28528,6.52701 -14.26598,8.67861 -14.26753,10.29892 -7e-4,0.77275 3.00776,5.38895 6.68554,10.2582 l 6.68688,8.85321 -3.13706,4.36639 c -1.72538,2.40151 -4.19653,5.38056 -5.49142,6.62012 l -2.35437,2.25374 -3.80699,-1.46238 c -3.38427,-1.30001 -4.77359,-1.41958 -12.51211,-1.07692 -14.44793,0.63976 -30.29193,3.38333 -49.26701,8.53115 -19.79231,5.36953 -19.6896,5.36528 -33.56916,1.38692 -4.76772,-1.3666 -9.32654,-2.48473 -10.13069,-2.48473 -1.74979,0 -4.61894,2.92642 -11.77796,12.01306 -2.94226,3.73449 -5.41402,6.78932 -5.49279,6.7885 -0.0788,-6.9e-4 -2.13061,-2.51617 -4.55965,-5.5897 z m 8.02399,-8.07581 c 7.2958,-8.83372 9.01196,-10.32873 11.82873,-10.30437 1.46869,0.0127 8.17003,1.37933 14.89187,3.03695 l 12.22151,3.01384 11.8046,-3.31255 c 17.83131,-5.00375 24.05522,-6.39934 35.48251,-7.95624 18.4509,-2.51383 26.49662,-3.08866 30.9547,-2.21159 4.82786,0.94982 5.4733,0.74624 7.62489,-2.40509 2.07568,-3.04012 1.95009,-3.35583 -5.10714,-12.83848 -2.89601,-3.89132 -5.46249,-7.86006 -5.70327,-8.81942 -0.95221,-3.79391 1.38668,-5.92427 14.36357,-13.08294 7.28389,-4.01814 10.20498,-6.75717 15.15299,-14.20852 2.98955,-4.50207 4.60818,-6.21862 7.22349,-7.6605 l 3.37059,-1.8583 0.01,-3.87406 c 0.009,-3.33391 -0.25699,-4.12422 -1.90509,-5.6682 -1.05332,-0.98677 -9.90642,-7.31583 -19.67356,-14.06456 -9.76714,-6.74874 -20.26551,-14.08571 -23.32971,-16.30438 l -5.57127,-4.03394 -3.28732,-7.62482 c -1.80804,-4.19365 -3.93161,-9.38861 -4.71907,-11.54434 -0.94059,-2.57497 -3.03802,-5.77646 -6.1142,-9.33264 -9.82372,-11.35661 -10.38439,-12.25324 -9.60471,-15.35977 0.75357,-3.00245 13.05047,-16.95516 16.58033,-18.81291 2.01059,-1.05816 11.37571,-3.13744 21.59474,-4.79455 6.55506,-1.06296 7.8444,-1.74645 17.58505,-9.32197 4.65825,-3.62281 14.4582,-8.68415 27.73475,-14.32403 5.95919,-2.53147 16.75563,-5.23445 21.01389,-5.26101 3.43533,-0.0215 7.3847,-1.40445 9.0059,-3.15375 2.48783,-2.68441 9.44895,-13.34789 9.44895,-14.47448 0,-0.57303 -3.37881,-4.59854 -7.50846,-8.94558 -11.54846,-12.15636 -17.39004,-21.06317 -16.54767,-25.23062 0.24153,-1.1949 2.3973,-6.54329 4.79061,-11.88531 l 4.35146,-9.71277 -3.37698,-6.05577 c -2.94438,-5.28 -3.45087,-6.78865 -3.95373,-11.77678 -0.38679,-3.8368 -1.01581,-6.30912 -1.90989,-7.50663 -0.73323,-0.98209 -5.6087,-4.16054 -10.83436,-7.06323 -5.22568,-2.90268 -10.19536,-5.76667 -11.04374,-6.36442 -3.31404,-2.33497 -0.81546,-8.7233 8.04636,-20.57277 4.36742,-5.83985 4.61827,-6.37728 4.35517,-9.33062 -0.3499,-3.92777 -6.49356,-21.13292 -8.04532,-22.53069 -0.63394,-0.57103 -4.25882,-1.82571 -8.0553,-2.78817 -4.69157,-1.18938 -7.43015,-2.2774 -8.54933,-3.39658 -0.90566,-0.90566 -2.89149,-4.60844 -4.41296,-8.22839 -1.52147,-3.619958 -3.15849,-7.328613 -3.63783,-8.241456 -0.63235,-1.204246 -4.02488,-3.062514 -12.36226,-6.77146 -6.31992,-2.811459 -12.5876,-5.326535 -13.92819,-5.589056 -2.82048,-0.552323 -5.06829,0.162669 -24.72252,7.863836 -20.13805,7.890741 -25.73795,10.359376 -34.71142,15.302056 -4.53632,2.49865 -9.23708,4.70296 -10.44613,4.89847 -3.05264,0.49364 -22.56468,-3.01782 -25.14592,-4.52534 -3.96041,-2.31301 -3.87547,-3.92706 0.68145,-12.949312 2.60902,-5.165613 3.83626,-8.313884 3.40785,-8.742289 -0.36822,-0.36823 -4.67344,-1.466196 -9.56716,-2.439925 -9.95147,-1.980099 -14.39881,-3.87375 -23.41078,-9.968178 -5.42062,-3.665739 -6.15397,-4.45493 -9.51503,-10.239543 -5.02422,-8.647012 -6.16132,-9.939648 -9.54788,-10.853893 -6.74768,-1.821626 -25.8546,-4.792752 -26.52302,-4.12433 -0.45193,0.451931 -0.046,2.906892 1.18581,7.17167 2.44134,8.452293 2.40191,11.561008 -0.21681,17.096503 -1.14878,2.428298 -2.08868,4.920451 -2.08868,5.538119 0,0.617668 0.91617,2.078104 2.03593,3.245414 1.52245,1.587087 3.10325,5.294467 6.26769,14.699338 2.32746,6.917326 4.23175,13.101716 4.23175,13.743096 0,0.64137 -0.90731,2.18159 -2.01625,3.4227 l -2.01625,2.25658 -8.60399,0.36595 -8.60399,0.36595 -1.91575,9.40152 c -2.277,11.17437 -2.64383,11.64002 -10.93133,13.87622 -10.84848,2.92724 -14.84989,3.57138 -16.03154,2.58072 -0.58684,-0.49198 -4.27957,-3.64559 -8.20608,-7.00803 l -7.13911,-6.11351 -8.29811,0.24742 c -4.56395,0.13609 -8.53889,0.48828 -8.83318,0.78266 -0.2943,0.29438 -0.92812,4.68175 -1.4085,9.74972 -0.75933,8.01095 -1.47515,11.14825 -5.4804,24.01938 -5.74281,18.4549 -6.01592,19.09764 -9.22061,21.69981 -1.44234,1.17117 -3.4059,2.76139 -4.36347,3.53382 l -1.74102,1.40442 3.54214,3.32926 c 1.94818,1.8311 4.05928,4.11851 4.69134,5.08315 1.37437,2.09757 1.0423,3.56024 -2.51562,11.08047 -1.35911,2.87268 -3.54929,7.57685 -4.86708,10.4537 -1.31778,2.87685 -2.91498,5.66139 -3.54934,6.18785 -1.08971,0.90438 -10.95624,1.80763 -25.40675,2.32592 -5.0907,0.18259 -5.1333,0.20016 -6.59141,2.71919 l -1.4676,2.53542 3.18734,3.73227 c 7.22633,8.46176 8.02272,10.73085 5.31403,15.14082 -2.49793,4.06682 -13.03929,18.77974 -13.78558,19.24097 -1.31045,0.80991 -0.66992,5.11743 1.46493,9.85139 5.44212,12.06776 11.77903,28.50123 11.77903,30.54651 0,1.24185 -0.76014,4.27741 -1.6892,6.74569 -1.66429,4.42164 -3.18566,14.61855 -3.18566,21.35182 l 0,3.44357 4.72817,3.50514 c 6.91409,5.12562 7.38563,5.77 6.81907,9.3184 -0.26147,1.63762 -1.55634,5.68012 -2.87748,8.98332 -1.32115,3.30321 -2.40208,6.48876 -2.40208,7.07902 0,1.54737 5.49303,6.1544 10.58936,8.88134 2.60223,1.39239 17.50278,6.50033 36.66928,12.57029 17.7572,5.62366 33.11303,10.84061 34.12405,11.59323 4.88608,3.63731 3.74497,6.64738 -7.52881,19.85981 -6.56182,7.6902 -16.94429,22.66621 -20.44411,29.48926 -1.59819,3.11574 -2.5841,34.22222 -1.11416,35.15281 1.40162,0.88733 19.25013,0.78073 22.56837,-0.13479 1.5321,-0.42272 6.19616,-2.8263 10.36456,-5.34129 7.34804,-4.43341 7.71236,-4.56903 11.95902,-4.45203 10.9624,0.30205 34.37705,5.66432 52.84538,12.10232 16.01849,5.58399 18.46582,6.7155 22.48687,10.39663 1.61929,1.48241 3.24269,2.6953 3.60756,2.6953 0.36485,0 1.86043,-1.44939 3.3235,-3.22086 z"
     id="path5670"
     inkscape:connector-curvature="0" />
  <path
     style="fill:#000000;fill-opacity:0.86792453;stroke:none;stroke-width:0;stroke-miterlimit:4;stroke-dasharray:none;stroke-opacity:1"
     d="m 323.13858,508.75324 c -2.89957,-3.74069 -5.24007,-5.97054 -7.59907,-7.23978 -4.52466,-2.43446 -26.50596,-9.99874 -36.22473,-12.46578 -10.87693,-2.76101 -29.62781,-5.7949 -32.49311,-5.25736 -1.29676,0.24327 -6.08394,2.78834 -10.63817,5.6557 l -8.28042,5.21339 -15.86231,0 c -12.2262,0 -15.86205,-0.19955 -15.86115,-0.87051 0.007,-5.29405 2.28591,-39.03402 2.75168,-40.74157 0.89703,-3.2885 14.20776,-22.98872 21.29078,-31.51088 8.57541,-10.31777 9.86958,-12.35313 8.62862,-13.57038 -0.54209,-0.53174 -14.93122,-5.41592 -31.97584,-10.85374 -17.04461,-5.43781 -32.87051,-10.79509 -35.16866,-11.90506 -2.29815,-1.10995 -7.07265,-3.96668 -10.61,-6.34827 -5.0318,-3.38776 -6.43378,-4.68535 -6.44179,-5.96219 -0.006,-0.89761 1.59676,-5.68888 3.56086,-10.64726 1.9641,-4.95838 3.45268,-9.11126 3.30794,-9.22861 -0.14473,-0.11735 -2.19269,-1.50733 -4.55101,-3.08884 -7.07179,-4.74238 -7.20289,-5.03362 -7.20289,-16.00188 0,-8.99265 0.11385,-9.75378 2.50631,-16.75565 l 2.5063,-7.33506 -2.09309,-4.56503 c -3.56421,-7.77353 -13.37503,-31.67809 -13.37021,-32.57724 0.002,-0.46874 3.33108,-5.63958 7.39682,-11.49075 4.06575,-5.85116 7.8668,-11.62008 8.44679,-12.8198 1.01346,-2.09638 0.97152,-2.29978 -1.07678,-5.22307 -1.17222,-1.67296 -3.56305,-4.76314 -5.31295,-6.86706 -1.7499,-2.10392 -3.18164,-4.045 -3.18164,-4.31352 0,-0.26852 1.30267,-2.65361 2.89482,-5.30021 l 2.89483,-4.81199 13.75812,-0.38293 c 9.4051,-0.26178 14.37105,-0.67962 15.69534,-1.32063 1.3899,-0.67275 2.40111,-2.11822 3.57913,-5.11614 0.90305,-2.29815 2.91802,-6.76327 4.47772,-9.92249 3.32011,-6.72501 3.63056,-5.91726 -4.80603,-12.50502 -3.17347,-2.47803 -5.60447,-4.77327 -5.40221,-5.10052 0.20226,-0.32727 2.31923,-1.76821 4.70439,-3.2021 8.72001,-5.24225 8.55658,-5.03047 11.68168,-15.13744 1.55585,-5.03182 3.78315,-11.96921 4.94957,-15.41643 1.92585,-5.69166 2.15559,-7.33486 2.49982,-17.8797 0.20849,-6.38662 0.56895,-11.91645 0.80102,-12.28854 0.23208,-0.37207 5.9978,-1.03439 12.81272,-1.47179 l 12.39076,-0.79529 8.48114,6.72838 8.48113,6.72838 4.26913,-0.39865 c 4.73881,-0.44252 9.72649,-2.13011 11.66505,-3.94689 0.86084,-0.80678 1.82569,-4.07779 3.0007,-10.17299 0.95255,-4.94113 1.8739,-9.68017 2.04748,-10.53119 0.30525,-1.49668 0.62869,-1.55366 9.88286,-1.74102 l 9.56727,-0.19371 0.20693,-1.77593 c 0.21383,-1.83518 -4.58442,-16.385963 -6.95033,-21.077012 -0.73704,-1.461395 -2.4201,-3.294308 -3.74013,-4.073141 -1.34317,-0.792492 -2.40004,-1.976288 -2.40004,-2.688285 0,-0.699724 1.25354,-3.864379 2.78564,-7.032567 3.49219,-7.221408 3.53737,-9.666567 0.36238,-19.612433 -1.31869,-4.130904 -2.60134,-8.596627 -2.85032,-9.92383 -0.57861,-3.084225 -1.03885,-3.08577 17.11786,0.05747 18.26061,3.161229 23.73484,4.398985 25.21312,5.700837 0.65578,0.577517 3.00616,4.066191 5.22307,7.752609 4.95938,8.246792 8.00704,11.371105 15.17328,15.554906 6.13887,3.583999 9.27024,4.541005 23.67791,7.236421 5.36235,1.003199 9.97103,2.027756 10.24151,2.276794 0.27048,0.249037 -2.00515,4.827467 -5.05695,10.174288 -3.0518,5.34682 -5.44165,10.045652 -5.31077,10.441842 0.32195,0.97461 9.96877,3.01662 16.93768,3.58531 5.64803,0.4609 5.68455,0.45312 9.90811,-2.11255 2.33154,-1.41634 7.77182,-4.239831 12.0895,-6.274424 7.90437,-3.724726 36.69478,-15.37034 46.6228,-18.858755 l 5.34483,-1.878015 13.11001,5.724455 c 20.35293,8.887057 19.03248,7.809886 22.50024,18.354754 2.44496,7.434725 3.76673,8.493705 13.24307,10.610135 4.40479,0.98377 8.05278,1.83972 8.10664,1.90212 0.0538,0.0624 2.51367,6.8952 5.46624,15.18398 l 5.36832,15.07052 -4.28213,5.38862 c -4.83373,6.08274 -9.01052,12.10537 -10.77191,15.53233 -0.95247,1.85312 -1.01865,2.51865 -0.33267,3.3452 0.47099,0.56752 5.81025,3.53744 11.86501,6.59982 12.34067,6.24169 11.74666,5.5485 12.7696,14.90159 0.69948,6.39559 1.61843,9.19941 4.65121,14.19148 2.09265,3.44458 2.69066,5.06337 2.40258,6.50376 -0.35302,1.76511 -3.26666,8.91068 -7.6684,18.80641 l -1.77247,3.98478 4.30027,6.42899 c 2.36516,3.53594 7.44981,9.74017 11.29922,13.78717 11.6742,12.27345 11.07717,11.48315 10.08816,13.35387 -1.5534,2.93829 -14.09332,20.21751 -14.86912,20.48871 -0.41552,0.14526 -5.62329,0.87901 -11.57284,1.63056 l -10.81736,1.36646 -11.81594,5.30796 c -14.13662,6.35045 -15.4093,7.07312 -25.08426,14.24369 -4.14558,3.0725 -8.49705,5.8922 -9.66991,6.26602 -1.17287,0.37381 -6.94433,1.47009 -12.82547,2.43619 -7.22124,1.18625 -11.61418,2.2692 -13.53028,3.33553 -2.99772,1.66824 -13.73104,13.76587 -13.73104,15.47639 0,0.55168 1.64527,2.93621 3.65615,5.29895 9.78183,11.49338 11.14602,13.71651 15.57025,25.37382 1.89605,4.99582 3.34939,7.65298 5.1422,9.40152 1.37454,1.34059 12.20147,9.23736 24.05984,17.54837 11.85838,8.31103 22.57376,15.83225 23.81198,16.71382 l 2.25129,1.60288 0.0121,7.01102 0.012,7.01101 -3.83846,1.20996 c -2.11114,0.66548 -4.17315,1.58452 -4.58223,2.04231 -0.40908,0.45779 -2.62018,3.89443 -4.91356,7.63699 -2.29337,3.74257 -4.85377,7.22793 -5.68979,7.74525 -0.83602,0.51733 -5.31245,3.17673 -9.94761,5.90979 -4.63518,2.73306 -8.99393,5.595 -9.68613,6.35987 -1.67407,1.84984 -1.18162,2.84974 6.32635,12.84546 l 6.01358,8.00615 -3.13891,4.36898 c -1.7264,2.40295 -4.19838,5.38317 -5.49328,6.62273 l -2.35437,2.25374 -3.64036,-1.38323 c -4.73829,-1.80041 -11.41604,-1.79646 -25.68818,0.0152 -14.46365,1.83596 -18.50623,2.66776 -37.13201,7.64025 -8.61807,2.30074 -16.94891,4.18541 -18.513,4.18814 -1.56408,0.003 -7.41556,-1.24856 -13.00329,-2.78066 -5.58773,-1.5321 -10.74715,-2.78564 -11.46537,-2.78564 -1.59131,0 -4.57962,3.09629 -11.59412,12.01306 -2.93779,3.73449 -5.44157,6.78999 -5.56397,6.78999 -0.12239,0 -2.10808,-2.43253 -4.41265,-5.40563 l -2e-5,0 z m 7.93449,-8.31484 c 1.4554,-1.80089 4.1083,-4.84926 5.89532,-6.77416 4.10497,-4.42171 4.61966,-4.4327 20.79456,-0.4439 l 12.20472,3.00974 13.91062,-3.88074 c 17.89648,-4.9927 20.93815,-5.66878 33.08196,-7.35327 18.1676,-2.52004 26.80652,-3.11882 31.54553,-2.18647 l 4.25785,0.83768 2.28413,-2.49241 c 1.25626,-1.37083 2.28412,-2.93416 2.28412,-3.47407 0,-0.53991 -1.78217,-3.44331 -3.96038,-6.45201 -9.83567,-13.58572 -10.09226,-14.32106 -6.25877,-17.9365 1.27391,-1.20145 5.73963,-4.05361 9.92383,-6.33814 9.226,-5.0373 12.54158,-7.97686 17.51452,-15.52819 3.0028,-4.5597 4.54014,-6.1878 7.23803,-7.66532 l 3.42545,-1.87598 -0.18726,-4.17631 -0.18726,-4.17631 -5.22307,-3.90834 c -2.87268,-2.14959 -13.52774,-9.63051 -23.67791,-16.62426 -10.15016,-6.99374 -19.13834,-13.33991 -19.97373,-14.1026 -1.35504,-1.23712 -6.41991,-12.27841 -9.51095,-20.73362 -0.6799,-1.85978 -3.58427,-5.96508 -7.14397,-10.09793 -9.56427,-11.10421 -9.9627,-12.10588 -6.72281,-16.90159 3.02682,-4.48033 12.63762,-14.71211 14.93526,-15.90026 2.07083,-1.07087 21.02042,-5.11145 24.09823,-5.13842 2.38391,-0.0209 5.26396,-1.68319 13.46055,-7.76914 7.45437,-5.53485 17.78352,-10.9295 30.90095,-16.13876 5.64262,-2.24083 12.68119,-3.84054 22.10768,-5.02458 2.12124,-0.26644 4.09677,-1.08162 5.51668,-2.2764 2.29442,-1.93062 10.33283,-13.62181 10.32612,-15.01847 -0.002,-0.43686 -3.37955,-4.40098 -7.50546,-8.80914 -10.02006,-10.70556 -16.86504,-20.50046 -16.86504,-24.13321 0,-0.66734 2.08805,-6.05064 4.64011,-11.96289 l 4.64011,-10.74955 -3.2724,-6.12422 c -2.71593,-5.08281 -3.38109,-7.07722 -3.91158,-11.72854 -0.35155,-3.08237 -0.95719,-6.1985 -1.34585,-6.92474 -0.80214,-1.4988 -4.44137,-3.86013 -13.98217,-9.07235 -9.09912,-4.97094 -9.97968,-5.71625 -9.90387,-8.38273 0.0764,-2.68573 3.78898,-9.59592 8.78559,-16.35233 6.42067,-8.68205 6.37042,-8.30265 2.55868,-19.31723 -3.43643,-9.93007 -4.60405,-12.7003 -5.75599,-13.65632 -0.50271,-0.41721 -4.01875,-1.54694 -7.81343,-2.51052 -4.71153,-1.19639 -7.42582,-2.27835 -8.55944,-3.41198 -0.91302,-0.91301 -3.18503,-5.22156 -5.04891,-9.57454 -3.89661,-9.100315 -2.49998,-7.980849 -18.83281,-15.095378 -5.55386,-2.419245 -10.80363,-4.399659 -11.66616,-4.400919 -1.85669,-0.0027 -10.32163,2.877959 -20.02046,6.813089 -3.83025,1.554056 -10.56801,4.222844 -14.97279,5.930639 -9.02048,3.497359 -16.80212,7.124539 -26.36252,12.288089 -3.58318,1.93527 -7.35171,3.51867 -8.37451,3.51867 -3.92695,0 -22.07093,-3.58676 -24.08023,-4.76025 -3.83626,-2.2405 -3.85913,-4.14634 -0.13531,-11.271731 4.01453,-7.681654 4.64523,-9.284403 4.03933,-10.264774 -0.25886,-0.418854 -4.5403,-1.584043 -9.5143,-2.589308 -10.04094,-2.029315 -15.33087,-4.313094 -23.94767,-10.33874 -4.66652,-3.263251 -5.59172,-4.329342 -9.77617,-11.264863 -3.08926,-5.120286 -5.26767,-7.971118 -6.56941,-8.597226 -1.99625,-0.960154 -20.85494,-4.678065 -25.85593,-5.097387 l -2.78563,-0.23357 0.20014,2.437432 c 0.11007,1.340588 0.81519,4.429094 1.56692,6.863346 1.94818,6.308617 1.77217,10.035836 -0.723,15.310174 -1.14878,2.428298 -2.08868,4.920451 -2.08868,5.538119 0,0.617668 0.92169,2.078104 2.04819,3.245414 1.54196,1.597816 3.08967,5.220607 6.262,14.657746 2.3176,6.894448 4.21637,13.078848 4.21949,13.743098 0.003,0.66425 -0.90162,2.22318 -2.01056,3.46429 l -2.01625,2.25658 -8.60399,0.36595 -8.60399,0.36595 -1.91575,9.40152 c -2.277,11.17437 -2.64383,11.64002 -10.93133,13.87622 -10.84991,2.92762 -14.84985,3.57143 -16.03154,2.58036 -0.58684,-0.49217 -4.29694,-3.64527 -8.24468,-7.00689 l -7.1777,-6.11202 -8.25951,0.2463 c -4.54273,0.13545 -8.47936,0.46619 -8.74806,0.73497 -0.2687,0.26878 -0.90383,4.65616 -1.41138,9.74973 -0.79195,7.94748 -1.57353,11.35529 -5.51034,24.02617 -5.72102,18.41346 -6.02793,19.136 -9.23432,21.73955 -1.44234,1.17117 -3.4059,2.76139 -4.36347,3.53382 l -1.74102,1.40442 3.54214,3.32926 c 1.94818,1.8311 4.05928,4.11851 4.69134,5.08315 1.36834,2.08836 1.07242,3.36826 -2.6424,11.42867 -1.41221,3.0642 -3.54885,7.69768 -4.7481,10.29663 -1.19926,2.59893 -2.709,5.20366 -3.35498,5.78827 -1.37683,1.24601 -4.7147,1.62869 -19.67316,2.25545 l -11.04262,0.4627 -1.45584,2.51398 -1.45583,2.51397 3.18898,3.75371 c 4.80385,5.65452 6.83513,8.95974 6.83513,11.12183 0,1.9963 -4.00508,8.35439 -11.94587,18.96418 -2.49421,3.33254 -4.07154,6.13258 -4.07154,7.22769 0,0.98322 1.29898,4.80288 2.88664,8.48816 6.59279,15.30326 11.04154,26.94487 11.04154,28.89384 0,1.14194 -0.77408,4.31896 -1.72017,7.06005 -1.73579,5.02902 -3.13845,14.38146 -3.14898,20.99623 l -0.006,3.59023 4.72817,3.50514 c 6.8434,5.07322 7.382,5.79356 6.84463,9.1541 -0.24742,1.54727 -1.56957,5.80224 -2.9381,9.45549 -1.36854,3.65325 -2.32242,7.07445 -2.11973,7.60265 0.62825,1.63719 7.55168,6.73946 11.96669,8.81894 2.3129,1.08938 18.41468,6.49554 35.78174,12.0137 17.36705,5.51815 32.39742,10.64412 33.40081,11.39106 2.6851,1.9988 3.37541,4.52499 2.01569,7.37635 -0.61463,1.28891 -4.86003,6.85444 -9.43422,12.36784 -7.71508,9.29924 -18.66657,25.26713 -20.77182,30.28649 -0.59432,1.417 -1.07191,7.66646 -1.39395,18.24087 l -0.48989,16.0854 1.85402,0.46533 c 1.01971,0.25593 6.31658,0.3378 11.77083,0.18194 10.97938,-0.31376 10.04845,-0.0208 21.29567,-6.70047 6.18947,-3.67587 6.7173,-3.85679 10.9144,-3.74116 11.00024,0.3031 35.28311,5.88055 53.56601,12.30343 15.30765,5.37765 17.81318,6.54973 21.79654,10.19636 1.61929,1.48241 3.24896,2.6953 3.62148,2.6953 0.37252,0 1.86809,-1.47345 3.32351,-3.27433 z"
     id="path5672"
     inkscape:connector-curvature="0" />
  <path
     style="fill:#000000;fill-opacity:0.86792453;stroke:none;stroke-width:0;stroke-miterlimit:4;stroke-dasharray:none;stroke-opacity:1"
     d="m 324.15297,510.14195 c -5.44968,-6.93657 -7.2955,-8.33851 -14.76526,-11.21457 -19.10252,-7.35495 -38.35442,-12.46029 -55.55714,-14.733 -5.83274,-0.77058 -6.21276,-0.7355 -9.74972,0.90004 -2.02423,0.93603 -6.48427,3.47107 -9.9112,5.63343 l -6.23079,3.93156 -15.8802,0 -15.88021,0 0.008,-1.56692 c 0.0197,-4.11075 2.1464,-37.36018 2.51801,-39.36748 0.58747,-3.17339 12.44997,-20.97096 21.22234,-31.84035 7.81425,-9.68223 9.67977,-12.19162 9.67977,-13.02065 0,-1.0846 -4.62147,-2.73452 -33.77584,-12.05837 -16.47008,-5.26729 -31.8259,-10.48764 -34.12405,-11.60078 -2.29815,-1.11314 -7.07726,-3.96229 -10.62024,-6.33146 -5.31172,-3.55192 -6.43907,-4.61625 -6.42633,-6.0671 0.008,-0.96773 1.56222,-5.64976 3.45271,-10.4045 1.89049,-4.75474 3.27433,-8.90859 3.0752,-9.23079 -0.19913,-0.32221 -2.19382,-1.82974 -4.43263,-3.3501 -6.83757,-4.6433 -6.9856,-4.97908 -6.9856,-15.84614 0,-8.89348 0.12832,-9.76227 2.49317,-16.88127 l 2.49316,-7.50526 -1.75024,-3.45393 c -0.96263,-1.89967 -2.37398,-5.15092 -3.13632,-7.22503 -0.76235,-2.0741 -3.44704,-8.61542 -5.96599,-14.53628 -2.51895,-5.92085 -4.57991,-11.16182 -4.57991,-11.6466 0,-0.48478 3.21218,-5.52384 7.13819,-11.19789 3.92601,-5.67407 7.73902,-11.44486 8.47336,-12.82399 l 1.33516,-2.5075 -2.58656,-3.5236 c -1.42261,-1.93798 -3.82539,-5.02276 -5.33951,-6.85506 -1.51413,-1.8323 -2.75296,-3.55467 -2.75296,-3.8275 0,-0.27282 1.30141,-2.65933 2.89202,-5.30336 l 2.89201,-4.80733 13.72333,-0.42484 c 7.93298,-0.24558 14.46719,-0.76376 15.48631,-1.22811 1.91163,-0.87099 2.33604,-1.55878 5.04294,-8.17245 0.98804,-2.41406 2.7029,-6.15949 3.8108,-8.32317 1.44177,-2.81574 1.83393,-4.27112 1.37962,-5.12 -0.34911,-0.65232 -3.30886,-3.27413 -6.57723,-5.82626 -3.26838,-2.55213 -5.76486,-4.92765 -5.54776,-5.27894 0.21711,-0.35129 2.60147,-1.9497 5.29859,-3.55203 6.28565,-3.73424 8.47627,-5.96521 9.56024,-9.73636 0.4807,-1.67235 2.61043,-8.51808 4.73274,-15.21272 l 3.85875,-12.17207 0.4507,-11.85404 0.45069,-11.85404 4.52666,-0.43064 c 2.48967,-0.23685 8.28727,-0.63604 12.88357,-0.88709 l 8.35691,-0.45644 5.57128,4.59518 c 11.54988,9.52633 12.43806,9.83752 20.75005,7.27021 7.05056,-2.1777 7.26896,-2.48146 9.25879,-12.87742 0.953,-4.97902 1.88302,-9.75787 2.06672,-10.61968 0.32637,-1.53117 0.54871,-1.56692 9.74411,-1.56692 7.89149,0 9.47753,-0.1757 9.82789,-1.0887 0.56868,-1.48197 -1.35682,-8.223662 -4.86052,-17.017938 -2.50044,-6.276087 -3.28334,-7.550875 -5.5248,-8.995894 -1.43635,-0.925979 -2.61154,-2.23455 -2.61154,-2.907935 0,-0.673385 1.25354,-3.81649 2.78564,-6.984678 3.47241,-7.180505 3.51666,-9.308355 0.40025,-19.248012 -1.31197,-4.184452 -2.60038,-8.754076 -2.86314,-10.154721 -0.43694,-2.329083 -0.34149,-2.546627 1.11741,-2.546627 2.22926,0 29.14342,4.646508 35.44208,6.118785 5.85232,1.367946 5.88092,1.396168 13.25922,13.081274 3.12403,4.947568 4.71799,6.690643 8.645,9.453741 7.68015,5.403853 11.22387,6.736606 24.98338,9.395955 6.94484,1.342254 12.88681,2.601049 13.20439,2.79732 0.31758,0.196273 -0.2518,1.81938 -1.26528,3.606905 -5.07921,8.95842 -9.35421,16.759985 -9.35421,17.070725 0,1.01113 14.49276,3.93775 19.49994,3.93775 1.88327,0 5.75998,-1.60124 14.01106,-5.787164 10.05449,-5.100819 43.88028,-19.10886 54.1366,-22.419212 l 3.73031,-1.204002 15.32933,6.815288 c 17.27818,7.681732 16.38795,6.922194 20.02267,17.083274 3.01328,8.423856 3.35656,8.667306 16.11053,11.426016 l 5.29964,1.14631 5.38904,15.08645 c 3.28079,9.18445 5.15794,15.40196 4.7983,15.89294 -0.32492,0.44357 -3.1843,4.20969 -6.35419,8.36915 -3.16989,4.15946 -6.5496,9.12958 -7.51046,11.04471 l -1.74703,3.48204 1.54822,1.26259 c 0.85152,0.69443 6.158,3.59754 11.79219,6.45137 5.63418,2.85382 10.45948,5.73288 10.72289,6.3979 0.26341,0.66503 0.90334,4.39714 1.42207,8.29358 0.92869,6.97583 1.98241,9.88794 5.72329,15.81717 2.17533,3.44786 2.03311,4.1311 -3.57447,17.17129 l -4.46521,10.38368 4.02771,6.11013 c 2.21523,3.36056 8.13818,10.46038 13.16209,15.77737 5.02392,5.31699 9.1344,9.97814 9.1344,10.35812 0,0.78043 -11.21995,16.93653 -13.91471,20.03641 -1.67968,1.9322 -2.23311,2.07723 -12.97879,3.40131 l -11.2243,1.38305 -12.89655,5.86754 c -13.10034,5.96025 -15.60406,7.41037 -24.89425,14.41841 -2.87269,2.16701 -5.98839,4.34629 -6.92379,4.84284 -0.9354,0.49655 -6.85463,1.79271 -13.15384,2.88036 -6.29921,1.08765 -12.78089,2.62031 -14.40372,3.40592 -3.51221,1.70022 -14.26729,13.53311 -14.26729,15.69706 0,0.48695 2.58542,3.96977 5.74538,7.7396 7.23751,8.63435 9.72927,12.56268 11.85628,18.69168 0.93047,2.68118 2.53771,6.6628 3.57164,8.84805 2.15434,4.55331 3.41545,5.54976 35.06174,27.70388 l 18.28074,12.7975 0,7.04179 0,7.04179 -3.94522,1.34102 c -4.23727,1.44029 -4.37879,1.59346 -10.60867,11.48277 -3.24158,5.14569 -3.43624,5.30944 -13.13984,11.05298 -5.41722,3.20645 -10.38344,6.41991 -11.03604,7.14102 -1.56894,1.73366 -1.17362,2.52364 6.31686,12.62343 l 6.06973,8.18413 -3.12624,4.35123 c -1.71944,2.39318 -4.18909,5.36869 -5.48812,6.61224 l -2.36186,2.26101 -3.9562,-1.3905 c -5.07865,-1.785 -11.00557,-1.7861 -24.83561,-0.005 -15.44432,1.98943 -17.37093,2.37993 -36.27957,7.35331 -9.39436,2.47091 -18.3258,4.49057 -19.84766,4.48813 -1.52185,-0.002 -6.37092,-0.97494 -10.77571,-2.16112 -12.61325,-3.39666 -13.67919,-3.58797 -15.26435,-2.73962 -0.78177,0.41839 -4.57404,4.67037 -8.42725,9.44883 -3.85323,4.77874 -7.10385,8.6884 -7.22361,8.6884 -0.11975,0 -1.63787,-1.80762 -3.3736,-4.01692 z"
     id="path5678" />
  <path
     style="fill:#000000;fill-opacity:0.86792453;stroke:none;stroke-width:0;stroke-miterlimit:4;stroke-dasharray:none;stroke-opacity:1"
     d="m 331.07307,500.4384 c 1.4554,-1.80089 4.11527,-4.85638 5.9108,-6.78999 2.99175,-3.22182 3.5156,-3.50922 6.26768,-3.4387 1.65169,0.0423 8.34555,1.41224 14.87523,3.04428 l 11.87216,2.96732 14.00265,-3.92408 c 17.41252,-4.87966 24.06053,-6.27581 38.16163,-8.01431 17.63233,-2.17387 22.70628,-2.44735 26.87068,-1.44833 l 3.70488,0.88879 2.29655,-2.65672 c 1.2631,-1.46119 2.29655,-3.03143 2.29655,-3.48943 0,-0.45798 -2.67474,-4.54728 -5.94386,-9.08732 -5.91312,-8.21191 -6.93313,-10.19294 -6.4745,-12.57446 0.32728,-1.69941 5.48122,-5.48144 13.08835,-9.6044 8.31368,-4.5059 10.99681,-6.90435 16.16466,-14.44961 3.33125,-4.86375 5.06167,-6.70219 7.6531,-8.13079 l 3.34855,-1.84599 0.01,-3.88296 c 0.008,-3.14728 -0.28684,-4.15342 -1.55689,-5.31049 -1.86296,-1.69724 -13.54844,-9.96015 -30.8161,-21.79035 -18.64919,-12.77671 -17.69863,-11.84252 -21.76572,-21.39082 -1.92408,-4.51714 -3.72559,-8.99644 -4.00337,-9.954 -0.82772,-2.85329 -3.1807,-6.30493 -8.13082,-11.92727 -6.04636,-6.86746 -8.23284,-10.13591 -8.23284,-12.30685 0,-3.63845 13.5279,-18.87207 18.30406,-20.61198 1.61503,-0.58835 7.3238,-1.88185 12.68615,-2.87445 14.19093,-2.62682 14.18803,-2.62568 22.77038,-8.96975 14.58392,-10.78044 39.48765,-21.22464 50.77097,-21.29245 3.29964,-0.0198 6.85159,-1.24907 8.8746,-3.07128 1.83416,-1.6521 9.85826,-13.38418 9.85826,-14.41382 0,-0.36571 -2.89881,-3.81066 -6.44179,-7.65545 -8.45672,-9.1771 -13.22988,-15.3321 -16.00813,-20.6425 l -2.26619,-4.33164 1.30033,-3.67706 c 0.71517,-2.0224 2.8843,-7.23812 4.82027,-11.5905 l 3.51998,-7.91342 -3.28168,-6.14159 c -2.72551,-5.10072 -3.39001,-7.0914 -3.92087,-11.74591 -0.35155,-3.08237 -0.96536,-6.21379 -1.36404,-6.9587 -0.77182,-1.44218 -4.98735,-4.12262 -14.81153,-9.41792 -8.0825,-4.35652 -9.13403,-5.27019 -9.06004,-7.87228 0.0786,-2.76281 2.91611,-8.34992 7.34556,-14.46331 6.03459,-8.32875 6.74049,-9.53752 6.74049,-11.54222 0,-2.10757 -4.93242,-16.77882 -7.05886,-20.99627 -1.35028,-2.67806 -2.9166,-3.38126 -13.53057,-6.0746 -4.27872,-1.08574 -6.45222,-4.0971 -10.72222,-14.855521 -0.87832,-2.21296 -2.32953,-4.599815 -3.22491,-5.304124 -0.89538,-0.704308 -6.84769,-3.550973 -13.22734,-6.325921 -9.11195,-3.963413 -12.08592,-4.966403 -13.86828,-4.677166 -1.2479,0.202507 -6.77257,2.091031 -12.27702,4.196719 -5.50446,2.105689 -13.76871,5.264691 -18.36501,7.020006 -4.5963,1.755315 -14.65782,6.326018 -22.35893,10.157117 -7.70111,3.8311 -14.76017,6.96564 -15.68679,6.96564 -3.79047,0 -21.94439,-3.61497 -23.90538,-4.76025 -3.92533,-2.29252 -3.89749,-4.13601 0.18042,-11.950267 3.54904,-6.800839 4.27493,-9.266383 2.96627,-10.07518 -0.35984,-0.22239 -4.38304,-1.14783 -8.94046,-2.056532 -9.34379,-1.863058 -13.46787,-3.606002 -22.38148,-9.458995 -5.89075,-3.868068 -6.40817,-4.415518 -10.26916,-10.865283 -6.4177,-10.720697 -5.60542,-10.237637 -22.1549,-13.175494 -9.96509,-1.768997 -14.29399,-2.132548 -14.29399,-1.200441 0,0.289961 0.77957,3.345456 1.73238,6.789989 2.28253,8.251719 2.22349,11.217449 -0.33956,17.057129 -1.14907,2.618063 -2.08923,5.088412 -2.08923,5.489666 0,0.401253 0.94777,1.809005 2.10617,3.128338 1.53616,1.749594 3.23003,5.761174 6.2589,14.822926 2.284,6.833274 4.15669,12.967624 4.16152,13.631874 0.005,0.66425 -0.90511,2.23117 -2.02209,3.48204 l -2.03087,2.27432 -8.58937,0.3482 -8.58937,0.34821 -1.90302,9.3333 c -1.11442,5.46573 -2.39108,9.87262 -3.08084,10.63479 -1.32665,1.46594 -10.07091,4.30896 -17.75806,5.77368 -4.06146,0.77388 -5.32586,0.79759 -6.15733,0.11545 -0.57549,-0.47213 -4.28224,-3.62213 -8.23722,-6.99999 l -7.19088,-6.14157 -8.28347,0.29533 c -4.55591,0.16244 -8.46012,0.47198 -8.67602,0.68789 -0.21591,0.21591 -0.83542,4.58651 -1.3767,9.71245 -0.82768,7.83811 -1.7035,11.64508 -5.50863,23.94449 -2.48846,8.04352 -4.99735,15.75434 -5.5753,17.13514 -1.00146,2.39263 -3.14112,4.63767 -7.739,8.12018 l -2.08263,1.57741 3.55261,3.29746 c 1.95393,1.81359 4.06503,4.09777 4.69133,5.07594 1.35545,2.11698 1.05787,3.40173 -2.65286,11.45328 -1.41221,3.0642 -3.54885,7.69768 -4.7481,10.29663 -1.19926,2.59893 -2.68589,5.18275 -3.30364,5.74181 -1.45801,1.31948 -4.76946,1.71839 -19.028,2.2922 l -11.73893,0.47241 -1.4255,2.4615 -1.4255,2.46151 4.62064,5.72327 c 4.80589,5.95271 5.78279,8.04916 5.07144,10.88342 -0.2322,0.92513 -3.86492,6.48769 -8.07272,12.36126 -4.38549,6.1216 -7.65545,11.36581 -7.66204,12.28801 -0.006,0.88483 1.68412,5.58559 3.75653,10.44614 7.23184,16.96128 10.16017,24.68529 10.16017,26.79926 0,1.17109 -0.76121,4.34649 -1.69157,7.05646 -1.64292,4.78549 -3.18329,15.22715 -3.18329,21.5784 0,3.03881 0.12154,3.21292 4.35255,6.23493 6.63108,4.73626 7.74592,6.15247 7.31708,9.29515 -0.19807,1.45156 -1.53135,5.758 -2.96285,9.56986 -1.85345,4.93549 -2.41056,7.24101 -1.93525,8.00871 1.14159,1.8438 7.31054,6.25332 11.68331,8.35112 2.29815,1.10252 18.41764,6.55905 35.8211,12.12562 17.40345,5.56658 32.44589,10.71895 33.42764,11.44972 2.62731,1.95565 3.32942,4.50949 2.00394,7.28905 -0.59944,1.25706 -4.68173,6.66589 -9.07174,12.01963 -7.6941,9.38319 -13.33432,17.3217 -18.98998,26.72813 -2.6247,4.36537 -2.6922,4.64955 -3.22541,13.57998 -0.29953,5.01671 -0.56122,12.63267 -0.58152,16.92434 l -0.0369,7.80304 2.49767,0.46857 c 1.37371,0.25771 6.6229,0.32505 11.66485,0.14964 10.13275,-0.35253 9.56886,-0.16869 20.58477,-6.71112 6.10598,-3.62639 6.81759,-3.87815 10.66053,-3.77163 10.28293,0.28501 34.7535,5.72117 51.04485,11.33965 15.47195,5.33589 20.23077,7.47097 24.19621,10.85581 1.9673,1.67926 3.81508,3.0532 4.10618,3.0532 0.2911,0 1.72005,-1.47345 3.17546,-3.27433 l 0,0 z"
     id="path5674" />
</svg>
